PathFileType	4	(X/Y/Z)	Kaydara	
DataRate	CameraRate	NumFrames	NumMarkers	Units	OrigDataRate	OrigDataStartFrame	OrigNumFrames	
60.00	60.00	5	74	mm	60.00	511	164	
Frame#	Time	N_lasi			N_rasi			N_rpsi			N_lpsi			N_fneck			N_bneck			N_fhead			N_rhead			N_lhead			N_rshld			N_relbtop			N_relbext			N_relblow			N_rwrext			N_rwrtop			N_rwrlow			N_lshld			N_lelbext			N_lelblow			N_lelbtop			N_lwrext			N_lwrtop			N_lwrlow			N_rtopleg			N_ltopleg			N_rkneefr			N_rkneebk			N_rkneeis			N_lkneefr			N_lknssbk			N_lkneeis			N_rankfr			N_rankis			N_rankbk			N_lankfr			N_lankbk			N_lankis			D_lasi			D_rasi			D_rpsi			D_lpsi			D_fneck			D_bneck			D_fhead			D_rhead			D_lhead			D_rshld			D_relbtop			D_relbext			D_relblow			D_rwrext			D_rwrtop			D_rwrlow			D_lshld			D_lelbext			D_lelblow			D_lelbtop			D_lwrext			D_lwrtop			D_lwrlow			D_rtopleg			D_ltopleg			D_rkneefr			D_rkneebk			D_rkneeis			D_lkneefr			D_lknssbk			D_lkneeis			D_rankfr			D_rankis			D_rankbk			D_lankfr			D_lankbk			D_lankis			
		X1	Y1	Z1	X2	Y2	Z2	X3	Y3	Z3	X4	Y4	Z4	X5	Y5	Z5	X6	Y6	Z6	X7	Y7	Z7	X8	Y8	Z8	X9	Y9	Z9	X10	Y10	Z10	X11	Y11	Z11	X12	Y12	Z12	X13	Y13	Z13	X14	Y14	Z14	X15	Y15	Z15	X16	Y16	Z16	X17	Y17	Z17	X18	Y18	Z18	X19	Y19	Z19	X20	Y20	Z20	X21	Y21	Z21	X22	Y22	Z22	X23	Y23	Z23	X24	Y24	Z24	X25	Y25	Z25	X26	Y26	Z26	X27	Y27	Z27	X28	Y28	Z28	X29	Y29	Z29	X30	Y30	Z30	X31	Y31	Z31	X32	Y32	Z32	X33	Y33	Z33	X34	Y34	Z34	X35	Y35	Z35	X36	Y36	Z36	X37	Y37	Z37	X38	Y38	Z38	X39	Y39	Z39	X40	Y40	Z40	X41	Y41	Z41	X42	Y42	Z42	X43	Y43	Z43	X44	Y44	Z44	X45	Y45	Z45	X46	Y46	Z46	X47	Y47	Z47	X48	Y48	Z48	X49	Y49	Z49	X50	Y50	Z50	X51	Y51	Z51	X52	Y52	Z52	X53	Y53	Z53	X54	Y54	Z54	X55	Y55	Z55	X56	Y56	Z56	X57	Y57	Z57	X58	Y58	Z58	X59	Y59	Z59	X60	Y60	Z60	X61	Y61	Z61	X62	Y62	Z62	X63	Y63	Z63	X64	Y64	Z64	X65	Y65	Z65	X66	Y66	Z66	X67	Y67	Z67	X68	Y68	Z68	X69	Y69	Z69	X70	Y70	Z70	X71	Y71	Z71	X72	Y72	Z72	X73	Y73	Z73	X74	Y74	Z74	

124	8.500	295.59013	1126.40503	-138.46021	536.06979	1161.57295	-208.99532	659.28810	1199.32747	53.23308	323.98643	1183.92929	145.14193	562.10197	1558.27499	-19.20537	459.30450	1659.15833	10.99751	295.66336	1725.53513	-173.29638	460.55584	1766.66977	-64.26708	318.72551	1738.05664	-5.63130	684.32480	1519.57443	-98.38014	787.89207	1204.61830	-61.14179	760.02251	1172.74139	-98.50307	754.54262	1211.42776	-142.26791	801.92642	904.93317	-147.03979	782.84302	908.71368	-191.10811	735.66566	910.88699	-185.76841	233.15947	1502.96524	120.23099	242.64647	1162.16026	44.81107	144.76713	1185.28503	43.32256	183.85624	1155.30876	114.48306	137.75531	918.82996	-82.82386	122.58318	938.64098	-124.21100	172.49212	949.99870	-138.30920	677.13737	1011.55861	-157.26381	274.62585	1012.71545	109.58616	574.78241	578.63865	-324.27074	639.51633	574.76315	-192.18956	496.20491	566.71505	-216.06489	434.66251	520.25925	-66.54875	418.94417	535.79098	64.42135	554.52572	537.84889	12.25485	668.24203	185.39354	-218.91169	591.12202	185.97113	-195.86510	639.24610	179.59599	-126.47057	501.00452	170.68174	-24.30230	503.46252	165.55368	58.42783	571.22486	182.12618	3.94602	-480.91732	1024.82971	1016.04019	-644.23233	1029.85451	1256.51237	-786.77269	1120.95566	1092.79915	-655.74394	1111.55907	920.57388	-546.46362	1511.64215	1140.05386	-645.90553	1589.35303	1079.04091	-429.44080	1677.65656	1175.10910	-608.42293	1719.76532	1188.62846	-546.91395	1708.19519	1046.24718	-728.66875	1465.18616	1273.25066	-858.98582	1149.72946	1250.59937	-793.69942	1129.99184	1218.46291	-812.21870	1153.05740	1324.53110	-876.70280	904.17755	1318.68240	-827.55043	897.49458	1349.60907	-801.77483	899.92584	1301.03745	-527.35104	1474.33380	890.06218	-498.66463	1141.59073	916.21376	-438.30196	1184.56551	849.45892	-501.21227	1133.99559	836.16219	-331.12766	957.41722	910.06149	-308.40336	983.82690	937.69882	-339.32362	987.83195	978.69789	-742.22885	975.32166	1259.38499	-565.21343	989.48845	897.68456	-499.65084	495.37167	1320.85098	-607.95162	481.85806	1317.85385	-553.96748	457.06997	1205.05249	-624.05209	436.67137	1009.07280	-682.84027	482.27814	918.90717	-718.32130	454.91356	1044.83711	-456.81850	160.60116	1385.67444	-463.74146	145.09050	1319.19189	-530.95474	130.31859	1368.27835	-775.28519	129.85606	950.52956	-810.03441	140.26874	885.03532	-838.28728	148.16862	968.41484 
125	8.517	286.64928	1123.33145	-148.97562	526.21166	1158.17200	-222.99557	654.93996	1197.76627	34.60479	321.42956	1183.00797	134.66823	555.92041	1556.88751	-32.96420	453.12294	1657.77100	-2.76131	287.05740	1724.15787	-184.83339	453.01743	1765.41229	-77.46867	311.80943	1736.09589	-17.16122	677.52151	1519.05441	-114.89855	782.01187	1204.61082	-75.96581	754.57321	1172.25426	-112.67823	748.05893	1210.27542	-156.76018	799.46762	903.55682	-155.10449	779.62601	905.90378	-199.09199	732.41379	907.62695	-192.47822	229.38946	1500.73456	110.02369	237.78072	1161.16226	31.21616	139.57588	1184.73404	30.48729	179.96269	1152.94640	100.10359	130.39653	923.60634	-105.69351	113.09236	945.12985	-145.37252	162.05454	957.98721	-161.02633	668.38631	1009.27605	-174.66610	270.93060	1012.49512	100.65793	555.60474	578.41515	-336.90025	625.96336	570.16350	-209.25060	480.62950	563.51543	-226.94843	432.50404	518.91743	-70.59579	417.15828	536.16444	59.89785	551.78825	538.03688	7.77054	648.16452	180.56347	-268.02052	572.03369	180.29278	-241.69209	623.46264	167.15425	-174.92922	500.98232	170.07317	-24.89061	503.24303	165.94011	57.68016	570.71014	182.50061	2.63318	-470.07557	1023.24394	1022.73827	-629.18957	1028.12805	1267.05185	-774.70551	1118.85864	1104.38614	-646.50742	1109.84726	930.62553	-534.80743	1509.94110	1148.92433	-635.30212	1587.41211	1090.05821	-417.08168	1676.29166	1181.90842	-595.90675	1717.67502	1199.23973	-537.47887	1706.43524	1055.71106	-714.66309	1462.68356	1285.40985	-842.68250	1145.75890	1266.05591	-777.55852	1126.18309	1233.32626	-794.62677	1150.19821	1339.18579	-855.88936	900.37628	1335.98068	-806.30844	894.69345	1366.46790	-780.98900	897.00012	1317.51617	-518.91869	1473.03070	899.32243	-493.10776	1139.43565	923.85666	-433.86440	1182.34352	855.14458	-498.00442	1133.19618	842.86102	-330.61310	951.63879	909.10599	-306.44506	976.89194	936.90750	-336.28376	980.46646	978.80386	-726.58920	973.30551	1270.89218	-556.26373	988.16879	905.94788	-486.12282	490.45021	1322.13226	-594.41887	479.26750	1324.98428	-545.75237	453.55019	1210.44174	-614.78138	434.27845	1014.64096	-674.07944	481.82808	925.50827	-708.54301	453.53397	1051.46133	-451.66843	153.28525	1383.31146	-462.56310	138.30824	1317.37930	-527.19604	125.04374	1370.29327	-772.86423	130.76607	953.09746	-807.66747	142.89907	887.01744	-835.14267	150.11393	970.67520 
126	8.533	278.24566	1120.16174	-159.00364	516.89468	1154.38148	-237.47587	650.71007	1195.87608	17.38598	318.82244	1181.87347	124.45038	550.02457	1555.44098	-46.81723	447.22706	1656.32446	-16.61434	278.31547	1722.78305	-196.27779	446.03336	1763.93997	-91.14008	305.61110	1734.15955	-28.96269	670.44022	1518.06168	-131.65387	775.93636	1204.26521	-90.98689	748.95630	1171.43852	-127.13907	741.43570	1208.80394	-171.62678	797.48093	902.48344	-165.31744	775.38971	902.96265	-207.78088	728.37639	904.30908	-199.45215	225.82712	1498.22678	99.83225	232.86060	1159.63799	16.95888	134.65364	1183.66699	17.64755	175.62748	1150.26505	86.01690	123.22474	927.65373	-127.34662	103.94783	950.81116	-165.23523	152.28027	965.06821	-182.20989	659.96361	1005.99754	-192.07932	267.15462	1011.96579	91.40723	536.99619	577.64694	-347.99606	612.33749	565.38837	-224.58292	465.58720	559.73400	-236.68192	429.81350	517.52766	-75.42559	415.36354	536.60641	54.87927	549.83410	538.54649	1.80253	626.77624	177.70157	-315.07423	551.59210	176.56801	-286.75390	605.14576	157.32155	-222.67708	500.33405	170.01091	-25.48027	502.64641	166.61430	56.87035	570.15675	182.77887	1.46271	-459.19628	1022.27798	1029.36432	-613.27980	1026.57196	1277.29362	-762.37915	1116.97220	1117.36832	-637.28886	1108.38539	940.90836	-522.40166	1508.58276	1158.26340	-624.64928	1585.83817	1101.16669	-404.60030	1675.41138	1188.28110	-582.86186	1716.29883	1210.02220	-528.03669	1705.13046	1065.18806	-700.17357	1460.48004	1297.55615	-825.49400	1141.91681	1281.77826	-760.69611	1123.12004	1248.43956	-776.33568	1147.59285	1354.05457	-834.24759	896.81717	1353.58170	-783.96080	892.19963	1383.38928	-759.11674	894.56642	1334.32999	-510.97187	1472.05856	908.28384	-488.23479	1137.50862	930.85236	-429.64493	1180.52231	861.17630	-494.97604	1132.84027	849.87503	-330.49747	946.08162	907.69745	-305.18604	969.91989	935.43808	-334.11255	973.25630	978.08884	-710.42702	971.47507	1283.08136	-547.06528	987.14432	914.22348	-474.82849	485.50835	1324.31412	-583.15384	476.16554	1330.42374	-539.47884	450.05413	1213.68782	-603.30605	431.65672	1020.34691	-663.77945	481.50673	933.04062	-696.18828	451.83311	1058.86017	-440.99846	149.55296	1383.42957	-455.50522	133.95486	1318.62244	-517.65965	122.18932	1374.00482	-769.42688	132.34159	954.76791	-804.30992	146.41180	889.60732	-830.69893	152.68222	973.43880 
127	8.550	270.28326	1117.23503	-169.40231	508.15331	1150.49423	-252.55253	646.63322	1194.10400	0.72976	316.35496	1180.30449	114.21749	544.35379	1553.83286	-60.88630	441.55632	1654.71619	-30.68342	269.74447	1721.14410	-207.64324	439.50279	1762.20245	-105.28476	299.62841	1732.41928	-40.75444	663.05794	1516.54282	-148.90218	770.82901	1203.55125	-107.61842	743.67096	1170.25696	-142.66889	734.50722	1206.96861	-187.02087	794.86809	900.93513	-176.49197	770.09895	899.79454	-217.05570	723.72971	900.91736	-206.98774	222.52344	1495.48492	89.44818	228.20354	1157.58812	3.37427	129.98652	1182.02507	4.88070	171.22355	1147.34444	72.30346	116.28299	931.15936	-147.69148	95.77019	955.60684	-183.91518	143.23220	971.10870	-201.87674	651.87050	1001.56570	-209.28638	263.03686	1011.44608	82.00539	519.27662	576.18126	-357.96856	599.22379	559.80625	-238.67456	451.64078	555.48145	-245.38404	426.75583	515.98785	-80.64748	413.16750	536.87176	49.33662	547.12257	538.78571	-4.52563	604.31179	177.49893	-360.01553	530.01801	175.47173	-329.37843	585.15629	149.98511	-268.69604	499.69082	169.59000	-26.44374	501.95282	167.28170	55.80215	569.55879	183.23402	-0.05206	-447.70699	1021.37253	1037.13875	-596.82938	1025.09178	1286.65543	-749.47823	1115.86922	1131.23947	-627.79976	1107.60422	951.44470	-510.18818	1507.97699	1166.99028	-613.75286	1585.38666	1112.49115	-391.78139	1675.34897	1194.40529	-569.50027	1716.30722	1220.92773	-518.57216	1704.98413	1074.40590	-685.56503	1459.09241	1309.87320	-807.65488	1138.63846	1297.72186	-742.92801	1120.57846	1263.34633	-757.63206	1145.19760	1369.14673	-811.62910	893.61946	1371.22543	-761.01021	890.33401	1400.67841	-736.51527	892.57797	1351.37436	-503.26744	1471.75018	917.17545	-483.32478	1136.37321	938.07411	-425.63923	1179.26704	867.25281	-492.38491	1133.22601	857.38205	-331.37768	940.84007	905.45937	-304.71172	963.46321	933.67775	-332.49866	966.56937	977.15530	-693.97736	970.57159	1295.03342	-537.78786	986.70441	922.73033	-464.36684	482.90375	1325.71014	-572.54898	474.23050	1335.20233	-533.96076	447.38045	1217.78870	-589.07318	428.96748	1026.74950	-651.43951	481.26301	941.70425	-681.20285	449.78870	1067.44194	-430.89569	145.73553	1385.98724	-446.97567	131.00763	1320.89798	-508.13148	120.28562	1377.69241	-762.29065	135.52554	953.41400	-799.71634	151.16953	892.66411	-825.05737	156.34630	977.01538 
128	8.567	262.54196	1114.59206	-180.03952	499.78844	1146.75110	-268.13492	642.11624	1191.88766	-16.50800	313.84562	1178.39516	103.76384	538.78498	1551.95786	-75.12904	435.98747	1652.84134	-44.92616	261.08210	1719.47067	-219.19895	432.67570	1759.98703	-119.69784	294.02256	1730.76721	-52.88106	655.38902	1514.66843	-166.56422	764.34601	1202.46399	-123.37652	737.49092	1168.68591	-157.99479	727.16499	1204.72794	-202.88055	791.49933	899.27513	-188.52568	764.31091	896.62613	-227.34959	718.56941	897.48306	-215.34630	218.97129	1492.84302	78.95321	223.46981	1155.36194	-10.55321	125.33403	1180.52773	-7.75809	166.71131	1144.61044	58.98125	109.49813	934.08035	-166.56984	88.16667	959.39377	-201.35975	134.86600	975.93689	-220.10309	643.66737	996.27571	-226.28351	259.94360	1010.63187	71.48160	502.41287	574.09088	-367.60429	586.99013	553.94642	-252.09637	438.48316	550.94002	-253.54654	423.01079	514.32079	-86.25039	410.78770	537.09431	43.40574	544.64245	539.18457	-12.21526	580.92857	179.60964	-401.40915	507.50183	176.41582	-368.90942	563.58238	145.68167	-312.03205	498.84785	169.14824	-27.51805	501.30562	167.85660	54.89845	568.71105	183.68029	-1.74581	-437.99362	1020.77957	1042.55722	-580.19360	1025.08080	1296.43311	-735.55344	1116.03676	1145.71022	-617.86186	1107.64343	962.10663	-497.71690	1508.61969	1175.59814	-602.74769	1586.07635	1124.30542	-379.00982	1675.98358	1199.57031	-555.56225	1716.70258	1231.44653	-509.24999	1705.50964	1083.52333	-670.46982	1458.22250	1322.35870	-788.80600	1136.03989	1313.87802	-724.46426	1118.19641	1278.57788	-737.70615	1143.91617	1384.61273	-788.20274	891.31386	1388.52097	-737.21230	889.31786	1417.65152	-713.18222	891.17165	1367.70432	-496.17577	1472.00058	925.98877	-478.25745	1135.63065	945.60898	-422.26753	1179.10500	873.17162	-490.02766	1134.42444	865.22667	-332.97443	936.59073	902.78290	-305.18946	957.71492	931.28975	-329.89090	960.67390	978.34381	-677.23969	970.52933	1306.76132	-528.38184	986.87523	931.19026	-452.20085	483.44715	1329.73480	-561.40747	473.88905	1342.04926	-525.50049	446.32790	1223.55392	-571.51470	426.26678	1034.07822	-636.11992	481.43856	951.51077	-662.28073	447.71263	1076.85120	-423.77586	142.77472	1388.86612	-440.60272	128.49933	1324.04312	-501.39175	118.78290	1381.13434	-756.71272	139.51942	959.29283	-793.89275	157.56520	896.16661	-817.04224	160.93092	981.88087 
